<?xml version="1.0" encoding="utf-8"?>
<svg viewBox="0 0 150 150" xmlns="http://www.w3.org/2000/svg">
  <path d="M 149.956 141.548 C 152.133 143.725 152.012 151.07 149.037 151.867 C 147.657 152.236 142.029 151.908 141.019 150.897 L 74.954 87.945 L 6.831 150.831 C 4.654 153.008 0.936 152.013 0.139 149.038 C -0.231 147.658 -0.602 142.503 0.408 141.493 L 64.433 75.348 L 0.607 7.857 C -1.57 5.68 -1.886 1.095 1.089 0.298 C 2.469 -0.072 7.024 -0.796 8.034 0.215 L 76.075 61.865 L 142.189 0.43 C 144.366 -1.748 146.381 -1.386 149.262 0.956 C 153.262 4.208 150.994 9.155 149.983 10.166 L 89.245 77.534 L 149.956 141.548 Z" style="fill: rgb(231, 128, 24); stroke-width: 0px;"/>
</svg>